<?xml version="1.0" encoding="utf-8"?>
<!-- Generator: Adobe Illustrator 23.0.3, SVG Export Plug-In . SVG Version: 6.00 Build 0)  -->
<svg version="1.1" id="图层_1" xmlns="http://www.w3.org/2000/svg" xmlns:xlink="http://www.w3.org/1999/xlink" x="0px" y="0px"
	 viewBox="0 0 200 200" style="enable-background:new 0 0 200 200;" xml:space="preserve">
<style type="text/css">
	.st0{fill:#15C92F;}
	.st1{fill:#8A8785;}
	.st2{fill:#D11C19;}
</style>
<g>
	<g>
		<path class="st0" d="M44.2,128.4C44.2,128.4,44.2,128.4,44.2,128.4c-4.2,0-7.5-3.4-7.5-7.5l0.2-38.2c0-4.1,3.4-7.5,7.5-7.4
			c4.1,0,7.5,3.4,7.4,7.5L51.7,121C51.7,125.1,48.4,128.4,44.2,128.4z"/>
		<path class="st1" d="M18.8,155.8C18.8,155.8,18.8,155.8,18.8,155.8c-4.2,0-7.5-3.4-7.5-7.5l0.2-47.2c0-4.1,3.4-7.4,7.5-7.4
			c0,0,0,0,0,0c4.1,0,7.5,3.4,7.4,7.5l-0.2,47.2C26.3,152.5,23,155.8,18.8,155.8z"/>
		<path class="st0" d="M69.6,142C69.6,142,69.6,142,69.6,142c-4.2,0-7.5-3.4-7.5-7.5l0.2-33.4c0-4.1,3.4-7.4,7.5-7.4c0,0,0,0,0,0
			c4.1,0,7.5,3.4,7.4,7.5l-0.2,33.4C77.1,138.7,73.7,142,69.6,142z"/>
		<path class="st1" d="M94.9,157.9L94.9,157.9c-4.1,0-7.5-3.3-7.5-7.5l0-67.6c0-4.1,3.3-7.5,7.5-7.5l0,0c4.1,0,7.5,3.3,7.5,7.5
			l0,67.6C102.4,154.5,99.1,157.9,94.9,157.9z"/>
		<path class="st1" d="M120.1,166.9C120.1,166.9,120.1,166.9,120.1,166.9c-4.2,0-7.5-3.4-7.5-7.5l0.5-98.8c0-4.1,3.4-7.4,7.5-7.4
			c0,0,0,0,0,0c4.1,0,7.5,3.4,7.4,7.5l-0.5,98.8C127.6,163.5,124.2,166.9,120.1,166.9z"/>
		<path class="st0" d="M145.8,124.8C145.8,124.8,145.8,124.8,145.8,124.8c-4.2,0-7.5-3.4-7.5-7.5l0.4-78.5c0-4.1,3.4-7.4,7.5-7.4
			c0,0,0,0,0,0c4.1,0,7.5,3.4,7.4,7.5l-0.4,78.5C153.2,121.4,149.9,124.8,145.8,124.8z"/>
		<path class="st0" d="M171.3,105.6C171.3,105.6,171.3,105.6,171.3,105.6c-4.2,0-7.5-3.4-7.5-7.5l0.2-48.1c0-4.1,3.4-7.4,7.5-7.4
			c0,0,0,0,0,0c4.1,0,7.5,3.4,7.4,7.5l-0.2,48.1C178.8,102.3,175.4,105.6,171.3,105.6z"/>
	</g>
	<g>
		<path d="M185.2,67.9c-13.8-2.2-34.1-2.3-48.7,0.3c-5.7,1-9.3,6.3-6.4,11.3c1.1,1.8,3.7,6.3,4.8,8.1c2.1,3.6-0.2,5.8-3.3,8.5
			c-23.6,20.6-27.1,43-35.8,32.3c-7.6-9.3-22.1-21.6-35.4-18.3c-14,3.5-31.3,15.8-46.2,45.1c-1.9,3.7-3.3,7.9-0.3,10.9
			c1.7,1.7,4.1,2.4,6.3,2.1c1.5-0.2,3.5-0.5,4.2-2c10.8-22.4,25.2-37.6,40.1-38.9c13.1-1.2,22.5,13.2,28,17.6
			c17.5,14,30.6-28.8,49.7-36.1c3.8-1.4,5.2,0.3,7.3,3.8c1.3,2.2,3.9,6.7,5.2,8.9c2.9,5,10.9,5.3,13-0.1
			c4.8-12.4,15.7-31.4,24.1-42.3C195.2,74.5,190.9,68.8,185.2,67.9z"/>
		<path class="st2" d="M180.4,62.2c-13.8-2.2-34.1-2.3-48.7,0.3c-5.7,1-9.3,6.3-6.4,11.3c1.1,1.8,3.7,6.3,4.8,8.1
			c2.1,3.6-0.2,5.8-3.3,8.5c-23.6,20.6-27.1,43-35.8,32.3c-7.6-9.3-22.1-21.6-35.4-18.3c-14,3.5-31.3,15.8-46.2,45.1
			c-1.9,3.7-3.3,7.9-0.3,10.9c1.7,1.7,4.1,2.4,6.3,2.1c1.5-0.2,3.5-0.5,4.2-2c10.8-22.4,25.2-37.6,40.1-38.9
			c13.1-1.2,22.5,13.2,28,17.6c17.5,14,30.6-28.8,49.7-36.1c3.8-1.4,5.2,0.3,7.3,3.8c1.3,2.2,3.9,6.7,5.2,8.9c2.9,5,10.9,5.3,13-0.1
			c4.8-12.4,15.7-31.4,24.1-42.3C190.4,68.8,186.1,63.1,180.4,62.2z"/>
	</g>
</g>
</svg>
