<svg xmlns="http://www.w3.org/2000/svg" xmlns:xlink="http://www.w3.org/1999/xlink" viewBox="0 0 127.45 129.41"><defs><style>.cls-1{fill:none;}.cls-2{clip-path:url(#clip-path);}.cls-3{fill:url(#未命名的渐变_5);}</style><clipPath id="clip-path" transform="translate(-0.03)"><path class="cls-1" d="M59.53,46.49a5.87,5.87,0,0,1,4.1-9.94h.73a5.89,5.89,0,0,1,4.1,10l-3.7,3.85a1,1,0,0,1-1.49,0l0,0ZM65.84,1A63.75,63.75,0,1,1,0,66.77m0,0A63.76,63.76,0,0,1,65.84,1M117.69,67.5a54,54,0,1,0-51.13,51.12A54,54,0,0,0,117.69,67.5ZM59.29,84.68a2.12,2.12,0,0,0-2.12-2.12H50.91a4.53,4.53,0,0,1-4.58-4,4.41,4.41,0,0,1,4.39-4.85h6.45a2.12,2.12,0,0,0,2.12-2.11V69.53a2.11,2.11,0,0,0-2.12-2.11H50.91a4.54,4.54,0,0,1-4.58-4,4.41,4.41,0,0,1,4.39-4.85h5.73a1,1,0,0,0,.73-.3,1,1,0,0,0,0-1.49l-7.94-8.28a5.87,5.87,0,0,0-9.14.82A28.21,28.21,0,0,0,50.8,89.81a5.79,5.79,0,0,0,8.49-5.11Zm51.63-22.45A47.23,47.23,0,1,1,66.21,17.52,47.24,47.24,0,0,1,110.92,62.23Zm-9.58,4.9A37.66,37.66,0,1,0,66.2,102.27,37.68,37.68,0,0,0,101.34,67.13ZM87.67,49.8a5.9,5.9,0,0,0-9.25-1l-7.77,8a1.05,1.05,0,0,0,.76,1.79h5.74a4.55,4.55,0,0,1,4.59,4,4.43,4.43,0,0,1-4.4,4.86h-7a2.1,2.1,0,0,0-2.11,2.11v2.09a2.11,2.11,0,0,0,2.11,2.11h6.85a4.55,4.55,0,0,1,4.59,4,4.43,4.43,0,0,1-4.4,4.86h-7a2.1,2.1,0,0,0-2.11,2.11h0a5.8,5.8,0,0,0,8.49,5.11,28.21,28.21,0,0,0,11-40Z"/></clipPath><linearGradient id="未命名的渐变_5" x1="130.18" y1="128.63" x2="0.16" y2="3.55" gradientUnits="userSpaceOnUse"><stop offset="0" stop-color="#ef7a00"/><stop offset="1" stop-color="#fed31a"/></linearGradient></defs><title>资源 1</title><g id="图层_2" data-name="图层 2"><g id="图层_1-2" data-name="图层 1"><g class="cls-2"><rect class="cls-3" width="127.45" height="129.41"/></g></g></g></svg>