<svg width="20" height="20" viewBox="0 0 20 20">
  <path
    d="M15.963 16.762c1.485 0 2.227-.742 2.227-2.203v-9.04c0-1.46-.742-2.21-2.227-2.21H3.971c-1.484 0-2.234.742-2.234 2.21v9.04c0 1.46.75 2.203 2.234 2.203h11.992zm-.023-1.016H3.987c-.797 0-1.227-.422-1.227-1.242v-8.93c0-.82.43-1.242 1.227-1.242H15.94c.781 0 1.234.422 1.234 1.242v8.93c0 .82-.453 1.242-1.234 1.242zm-2.867-2.64c.132 0 .25-.055.328-.133l2.578-2.586c.117-.11.18-.227.18-.367 0-.133-.055-.242-.18-.367L13.4 7.067a.435.435 0 00-.328-.133.452.452 0 00-.461.46c0 .141.062.259.148.345L13.823 8.8l.906.79-1.438-.048h-6.64l-1.438.047.899-.789 1.07-1.062a.477.477 0 00.14-.344.45.45 0 00-.452-.461c-.141 0-.25.047-.336.133L3.955 9.653c-.125.125-.18.234-.18.367 0 .14.063.258.18.367l2.579 2.586a.485.485 0 00.336.133.45.45 0 00.453-.461.448.448 0 00-.141-.344l-1.07-1.055-.907-.797 1.446.047h6.64l1.438-.047-.906.797-1.063 1.055a.454.454 0 00-.148.344c0 .258.195.46.46.46z"
    fill="#554C4C" fill-rule="nonzero"></path>
</svg>