<svg width="20" height="20" viewBox="0 0 20 20"><path d="M11.727 4c2.968 0 5.289 2.36 5.25 5.617 1.453.57 2.32 1.899 2.32 3.414 0 1.985-1.703 3.563-3.89 3.563L5.32 16.586c-2.468 0-4.32-1.766-4.32-3.89 0-1.782 1.047-3.227 2.688-3.454.023-2.047 1.992-3.43 3.78-2.851C8.32 5.086 9.719 4 11.728 4zm0 1.016c-1.922 0-3.032 1.078-3.75 2.367-.047.07-.094.094-.18.062-1.54-.53-3.18.235-3.18 2.446 0 .093-.039.14-.133.14-1.562 0-2.46 1.172-2.46 2.664 0 1.555 1.398 2.867 3.296 2.867l10.086.008c1.617 0 2.867-1.117 2.867-2.539 0-1.336-.859-2.344-2.195-2.656-.086-.023-.117-.078-.11-.164.024-.328.04-.703.024-1.024-.14-2.257-1.844-4.171-4.265-4.171zm-.899 2.548c.221 0 .4.18.4.4v4.963l1.767-1.768.063-.051a.4.4 0 01.503.617l-2.45 2.45-.062.05a.4.4 0 01-.503-.05L8.07 11.7l-.052-.063a.4.4 0 01.617-.503l1.793 1.792V7.964l.008-.08a.4.4 0 01.391-.32z" fill="#554C4C" fill-rule="nonzero"></path></svg>